<svg width="70" height="47" viewBox="0 0 70 47" fill="none" xmlns="http://www.w3.org/2000/svg">
<g clip-path="url(#clip0_6_12275)">
<path d="M0 0H70V46.6666H0V0Z" fill="#232323"/>
<path d="M0 7.7793H70V15.5593H0V7.7793Z" fill="#FFDA44"/>
<path d="M0 15.5605H70V23.3406H0V15.5605Z" fill="#D32300"/>
<path d="M0 31.1211H70V38.9011H0V31.1211Z" fill="#FFDA44"/>
<path d="M0 38.8867H70V46.6668H0V38.8867Z" fill="#D32300"/>
<path d="M35 34.3752C41.0935 34.3752 46.0332 29.435 46.0332 23.3409C46.0332 17.2469 41.0935 12.3066 35 12.3066C28.9065 12.3066 23.9668 17.2469 23.9668 23.3409C23.9668 29.435 28.9065 34.3752 35 34.3752Z" fill="white"/>
<path d="M32.0605 17.4341C32.1836 17.2426 29.3809 17.1606 29.3809 17.1606C29.6133 16.8188 31.8965 15.7249 31.8965 15.7249C31.8965 15.7249 31.7734 14.9045 32.2656 14.3849L31.6504 13.045C31.6504 13.045 32.6074 12.5801 34.166 12.5801C35.7246 12.5801 36.8867 13.5372 37.0371 14.3713L36.1621 14.8362C36.1484 15.4788 36.3945 16.4222 35.5742 17.2016C34.7676 17.981 34.4394 18.1451 34.4121 19.7722C34.4121 20.3054 34.7266 20.8934 35.6152 21.3719C37.9941 22.6436 40.8926 25.2278 41.7129 26.0072C42.5469 26.7865 42.4102 28.6324 42.0684 29.4528C41.7266 30.2732 40.4141 31.4081 40.1133 31.3124C39.8125 31.2303 40.2773 30.0544 39.6348 29.7263C39.6348 29.7263 38.418 28.6871 37.3379 29.8083C36.2578 30.9295 37.3105 33.254 37.8711 33.6368C38.4316 34.0197 38.1035 34.3205 37.6113 34.3205H33.7695C33.25 34.3205 33.0312 34.006 33.5098 33.6368C34.5488 33.1172 35.2051 31.5448 34.5215 30.8611C33.8516 30.1912 32.0195 31.0662 31.582 31.7226C31.1992 32.1054 30.3789 32.2148 29.8184 31.5311C29.2578 30.8475 29.2578 30.1091 29.668 29.822C30.625 29.1657 29.668 29.822 29.6816 29.8083C29.6816 29.8083 31.3086 28.6324 33.7695 28.5777C34.3027 28.5777 34.4258 28.2769 34.0703 27.9214C34.0703 27.9214 29.8457 24.1749 30.2285 21.8779C30.6387 19.3757 32.9629 18.2818 32.0605 17.4341C31.8828 17.1879 32.0605 17.4341 32.0605 17.4341V17.4341Z" fill="black"/>
</g>
<defs>
<clipPath id="clip0_6_12275">
<rect width="70" height="46.6666" fill="white"/>
</clipPath>
</defs>
</svg>
