<svg width="70" height="47" viewBox="0 0 70 47" fill="none" xmlns="http://www.w3.org/2000/svg">
<g clip-path="url(#clip0_6_12165)">
<path d="M0 0H70V46.6666H0V0Z" fill="#00318B"/>
<path d="M62.0587 36.2124C63.1422 34.721 63.8654 32.9007 63.8654 30.697V14.3132C62.4488 15.3793 60.7233 15.9546 58.9503 15.952C56.2704 15.952 53.8921 14.6653 52.3965 12.6758C50.9024 14.6653 48.5227 15.952 45.8427 15.952C43.9979 15.952 42.2964 15.3421 40.9277 14.3146V30.697C40.9277 32.9021 41.6509 34.7223 42.7344 36.2124H62.0587Z" fill="white"/>
<path d="M42.332 35.6113C45.3913 40.5209 52.3981 42.1638 52.3981 42.1638C52.3981 42.1638 59.4049 40.5209 62.4642 35.6113H42.332Z" fill="#8DCCFF"/>
<path d="M54.1249 23.4985C54.1685 23.6923 55.3147 24.8862 56.521 26.248C56.7106 26.4622 55.3284 27.9714 55.5781 27.9659C56.2262 27.9496 58.2075 25.6108 58.2171 28.8733C58.2239 31.0484 54.1235 32.6271 54.1235 32.6271H56.5073L56.596 34.6685C56.596 34.6685 57.2742 32.8482 57.6317 32.4074C58.7369 31.047 60.3853 28.3043 62.3516 28.7096C64.3178 29.1149 60.4876 26.8102 60.4876 26.8102C60.4876 26.8102 59.7781 24.7375 58.2184 24.4946C56.8457 24.2804 56.2685 24.1521 54.5833 23.4985C54.3541 23.4098 54.0539 23.1819 54.1249 23.4985V23.4985Z" fill="#D87B00"/>
<path d="M49.0807 27.1111C49.2267 26.976 49.6893 25.3877 50.2665 23.6616C50.3579 23.39 52.3556 23.8349 52.2246 23.6206C51.8875 23.0667 48.8706 22.5181 51.6924 20.8807C53.5741 19.7891 56.9895 22.555 56.9895 22.555L55.7996 20.4891L57.5244 19.3934C57.5244 19.3934 55.6072 19.714 55.0491 19.624C53.3189 19.3456 50.1191 19.2856 49.4887 17.3793C48.8583 15.4731 48.7723 19.9433 48.7723 19.9433C48.7723 19.9433 47.3314 21.5916 47.899 23.0653C48.3984 24.3616 48.5758 24.9265 48.8501 26.7127C48.8897 26.9569 48.8419 27.3308 49.0807 27.1111V27.1111Z" fill="#D87B00"/>
<path d="M53.99 30.0013C53.8003 29.9426 52.1943 30.341 50.4122 30.7081C50.1311 30.7654 49.513 28.8141 49.3929 29.0352C49.0832 29.6042 50.1243 32.4888 47.2902 30.8705C45.4017 29.7911 46.0771 25.4492 46.0771 25.4492L44.8886 27.5151L43.0752 26.5736C43.0752 26.5736 44.3155 28.0691 44.5175 28.5985C45.1452 30.2346 46.7007 33.0319 45.369 34.5328C44.0372 36.0352 47.9452 33.8642 47.9452 33.8642C47.9452 33.8642 50.0957 34.2831 51.0836 33.051C51.9541 31.9675 52.3526 31.5309 53.7594 30.397C53.9545 30.2441 54.3011 30.0981 53.99 30.0013V30.0013Z" fill="#D87B00"/>
<path d="M35 0H31.848L21.8324 6.67251V0H13.0994V6.67251L3.08382 0H0V3.09746L6.29045 7.28654H0V16.0195H6.29045L0 20.2086V23.3333H3.08382L13.0994 16.6199V23.3333H21.8324V16.6199L31.848 23.3333H35V20.2086L28.6413 16.0195H35V7.28654H28.6413L35 3.09746V0Z" fill="white"/>
<path d="M19.6491 0H15.2827V9.46978H0V13.8362H15.2827V23.3333H19.6491V13.8362H35V9.46978H19.6491V0Z" fill="#D80027"/>
<path d="M0 23.3333V21.7914L8.52827 16.0195H11.6121L0.996101 23.3333H0ZM0.996101 0.0136719L11.6121 7.27292H8.52827L0 1.51464V0.0136719H0.996101ZM35 0.0136719V1.51464L26.4035 7.28657H23.3197L33.9357 0.0136719H35ZM33.9357 23.3333L23.3197 16.0195H26.4035L35 21.7914V23.3333H33.9357Z" fill="#D80027"/>
</g>
<defs>
<clipPath id="clip0_6_12165">
<rect width="70" height="46.6666" fill="white"/>
</clipPath>
</defs>
</svg>
