<svg width="70" height="48" viewBox="0 0 70 48" fill="none" xmlns="http://www.w3.org/2000/svg">
<g clip-path="url(#clip0_6_12245)">
<path d="M53.7995 12.3125L56.1938 14.8931L59.3879 13.4136L57.6733 16.488L60.0677 19.0687L56.6138 18.3881L54.8995 21.4627L54.4793 17.9676L51.0254 17.287L54.2195 15.8077L53.7995 12.3125Z" fill="white"/>
<path d="M0 0.667969H70V47.3336H0V0.667969Z" fill="white"/>
<path d="M17.5 0.666016H70V47.3332H17.5V0.666016Z" fill="#01411C"/>
<path d="M49.4797 29.8503C45.2364 32.9163 39.3109 31.962 36.2448 27.7186C33.1786 23.4751 34.1331 17.5496 38.3767 14.4836C39.6997 13.5277 41.1863 12.9626 42.6988 12.766C39.789 12.3309 36.7136 12.9866 34.1404 14.8457C28.9178 18.6194 27.7431 25.9122 31.5167 31.135C35.2903 36.3575 42.5832 37.5324 47.806 33.7585C50.3791 31.8994 51.9672 29.1856 52.4676 26.2862C51.806 27.6602 50.8029 28.8942 49.4797 29.8503V29.8503ZM49.298 12.6368L51.6884 15.2129L54.877 13.7361L53.1654 16.805L55.5557 19.3813L52.1078 18.7021L50.3962 21.7714L49.9769 18.2822L46.5288 17.6029L49.7175 16.126L49.298 12.6368Z" fill="white"/>
</g>
<defs>
<clipPath id="clip0_6_12245">
<rect width="70" height="46.6666" fill="white" transform="translate(0 0.666016)"/>
</clipPath>
</defs>
</svg>
