<svg width="70" height="47" viewBox="0 0 70 47" fill="none" xmlns="http://www.w3.org/2000/svg">
<g clip-path="url(#clip0_6_12260)">
<path d="M0 0.333984H70V47.0006H0V0.333984Z" fill="#FFDA44"/>
<path d="M30.374 3.37695H66.8204V43.8759H30.374V3.37695Z" fill="#A2001D"/>
<path d="M3.04297 3.37695H30.3744V43.8759H3.04297V3.37695Z" fill="#D80027"/>
<path d="M27.3311 0.333984H30.3739V47.0006H27.3311V0.333984Z" fill="#FFDA44"/>
<path d="M3.04297 3.37695H15.1872V43.8759H3.04297V3.37695Z" fill="#6DA544"/>
<path d="M15.1875 3.37695H27.3317V43.8759H15.1875V3.37695Z" fill="#FF9811"/>
<path d="M50.2417 21.7303C50.0507 21.4574 50.2417 16.5588 50.2417 16.5588C50.3645 15.549 50.2553 15.4126 50.3781 15.0032C50.5009 14.6075 51.115 13.4204 51.115 13.4204C51.115 13.4204 50.2963 13.1066 49.7095 13.3385C49.1228 13.5705 46.3392 12.3151 45.4522 13.8025C44.8518 14.7576 42.2319 16.013 42.0955 15.7128C41.959 15.4126 41.2904 15.0305 41.154 15.3171C41.0175 15.6036 41.0585 17.2138 41.154 17.5003C41.2631 17.8551 42.4912 17.7732 42.8323 17.9233C43.3372 18.1689 44.497 19.0422 44.4561 19.3833C44.4152 19.7245 41.3859 18.5646 41.154 18.7693C40.9629 18.9331 40.8947 20.5705 41.0994 20.8161C41.345 21.1026 44.2924 21.5802 44.5107 21.8395C44.729 22.0987 42.7232 22.8492 42.8323 25.2508C42.9278 27.2566 43.9239 27.6251 43.9239 27.6251C43.9239 27.6251 43.5965 28.1163 42.8596 28.0481C42.0136 27.9662 39.1208 25.6329 39.1208 25.6329C39.1208 25.6329 38.6432 10.7596 39.6121 9.06757C40.2807 7.90773 36.5146 10.4457 36.5146 15.9993V20.9389C36.5146 21.8395 36.3236 23.9954 36.8694 25.5783C36.8694 25.5783 36.8148 31.9779 37.074 32.3463C37.3333 32.7147 38.807 32.6465 39.0935 32.3463C39.3801 32.0461 39.0935 28.2527 39.0935 28.2527C40.1442 28.28 41.5906 30.6406 43.5282 30.4905C46.3392 30.2722 47.4444 29.1397 48.2085 29.8083C49.3138 30.7771 48.959 32.974 48.2631 34.1065C47.9629 34.5841 46.3119 34.7479 46.1208 35.1436C45.9298 35.5393 46.1891 35.8804 46.1891 35.8804H50.2417C50.2417 35.8804 50.4327 33.0831 50.6101 32.319C50.7875 31.5412 50.5282 30.859 51.4152 30.8999C54.6218 31.05 56.846 28.8122 57.6238 29.8083C58.0604 30.3677 58.3879 33.8882 58.074 34.3521C57.7739 34.8161 56.191 34.7342 56 35.2664C55.8089 35.8122 56.1091 35.8668 56.1091 35.8668H60.1618C60.1618 35.8668 60.1072 32.974 60.5029 32.087C60.8986 31.2001 61.1715 30.6679 61.7719 29.7401C62.3723 28.8122 63.3138 27.5978 63.3138 24.8005C63.3138 22.8629 62.2085 21.6894 62.2085 21.6894H56.9006C54.9766 21.7167 50.4327 22.0032 50.2417 21.7303ZM31.6842 4.74204C33.1442 3.29564 34.4405 4.37362 34.7134 5.02859C34.9727 5.68356 35 6.14749 35.0955 6.88433C35.2183 7.82585 35.7641 8.79466 35.7641 8.79466C35.7641 8.79466 34.7953 8.27615 33.7583 8.22157C33.1169 8.18063 32.5302 8.13969 31.9025 7.88043C31.1247 7.5666 30.306 6.1202 31.6842 4.74204ZM65.5789 4.72839C67.039 6.17478 65.961 7.48472 65.306 7.75763C64.651 8.03053 64.1871 8.04418 63.4503 8.13969C62.5087 8.2625 61.5399 8.82195 61.5399 8.82195C61.5399 8.82195 62.0448 7.85314 62.113 6.81611C62.154 6.17478 62.1949 5.57439 62.4405 4.96036C62.7407 4.18258 64.1871 3.35023 65.5789 4.72839V4.72839ZM65.5926 42.512C64.1325 43.9584 62.8362 42.8668 62.5633 42.2118C62.3041 41.5568 62.2768 41.0929 62.1949 40.356C62.0857 39.4145 61.5263 38.4321 61.5263 38.4321C61.5263 38.4321 62.4815 38.9506 63.5321 39.0188C64.1735 39.0597 64.7602 39.1007 65.3879 39.3599C66.1657 39.6874 66.9844 41.1475 65.5926 42.512V42.512ZM31.7251 42.4983C30.2787 41.0383 31.3567 39.742 32.0117 39.4691C32.6666 39.2098 33.1306 39.1825 33.8674 39.087C34.8089 38.9642 35.7778 38.4184 35.7778 38.4184C35.7778 38.4184 35.2592 39.3872 35.2047 40.4243C35.1637 41.0656 35.1228 41.6523 34.8635 42.28C34.5497 43.0578 33.1033 43.8901 31.7251 42.4983V42.4983Z" fill="#FFDA44"/>
<path fill-rule="evenodd" clip-rule="evenodd" d="M53.0848 15.3932C52.7919 15.6448 52.5746 16.051 52.5746 16.7359C52.5746 17.3241 52.9329 17.8538 53.6485 18.1842C54.3699 18.5173 55.4325 18.6281 56.7113 18.3295C58.0951 18.0052 59.521 18.1081 60.6027 18.4523C61.1424 18.624 61.6195 18.8631 61.9648 19.1605C62.3067 19.455 62.5673 19.8526 62.5346 20.3252C62.4679 21.324 62.1528 21.9591 61.8189 22.3517C61.654 22.5457 61.49 22.674 61.361 22.7557C61.2967 22.7965 61.2412 22.8257 61.1987 22.8457C61.1775 22.8557 61.1595 22.8634 61.1452 22.8692C61.1381 22.8721 61.1319 22.8745 61.1267 22.8764C61.1241 22.8774 61.1217 22.8783 61.1196 22.879L61.1167 22.8801L61.1153 22.8805L61.1147 22.8808C61.1144 22.8809 61.1141 22.881 60.98 22.4942C60.846 22.1074 60.8457 22.1075 60.8454 22.1076L60.8448 22.1078L60.8438 22.1082L60.8419 22.1088L60.8392 22.1098C60.8379 22.1103 60.8375 22.1105 60.8379 22.1103C60.8387 22.11 60.8428 22.1083 60.8498 22.105C60.8638 22.0984 60.8892 22.0855 60.9227 22.0642C60.9894 22.0219 61.089 21.9463 61.1952 21.8214C61.4037 21.5762 61.6616 21.113 61.7178 20.2701L61.7179 20.2688C61.7258 20.1549 61.6692 19.9865 61.4305 19.7809C61.1951 19.5781 60.8279 19.3831 60.3545 19.2325C59.4098 18.9319 58.1341 18.837 56.898 19.1267L56.8977 19.1267C55.4884 19.4558 54.2315 19.3551 53.3053 18.9275C52.3731 18.4971 51.7559 17.7169 51.7559 16.7359C51.7559 15.8584 52.0451 15.2071 52.5513 14.7722C53.0432 14.3496 53.688 14.1765 54.3211 14.134C55.5782 14.0497 56.9808 14.4679 57.6656 14.8327L57.6673 14.8336L57.6673 14.8336C57.9469 14.9842 58.297 15.2206 58.6599 15.4656C58.7296 15.5126 58.7997 15.56 58.87 15.6072C59.3196 15.909 59.7914 16.2158 60.2411 16.4418C60.7025 16.6737 61.0805 16.789 61.3546 16.7733C61.4809 16.766 61.5745 16.7316 61.6492 16.675C61.7253 16.6174 61.8093 16.5158 61.8804 16.3302L62.645 16.6231C62.5318 16.9185 62.3668 17.1585 62.1434 17.3277C61.9185 17.498 61.6618 17.5757 61.4015 17.5906C60.9026 17.6192 60.3621 17.4189 59.8734 17.1733C59.3731 16.9218 58.8633 16.5889 58.4136 16.2869C58.3372 16.2356 58.2629 16.1855 58.1909 16.1369C57.8267 15.8912 57.5199 15.6842 57.28 15.5549C56.7091 15.2511 55.4583 14.8783 54.3758 14.9509C53.8388 14.9869 53.392 15.1293 53.0848 15.3932Z" fill="#FFDA44"/>
</g>
<defs>
<clipPath id="clip0_6_12260">
<rect width="70" height="46.6666" fill="white" transform="translate(0 0.333984)"/>
</clipPath>
</defs>
</svg>
