<svg width="70" height="48" viewBox="0 0 70 48" fill="none" xmlns="http://www.w3.org/2000/svg">
<g clip-path="url(#clip0_6_12235)">
<path d="M0 0.666016H70V47.3332H0V0.666016Z" fill="#0052B4"/>
<path d="M58.1459 20.9574L58.6091 22.3831H60.108L58.8953 23.2641L59.3585 24.6897L58.1459 23.8087L56.9331 24.6897L57.3963 23.2641L56.1836 22.3831H57.6824L58.1459 20.9574ZM52.7874 31.2211L53.4823 33.3597H55.7306L53.9116 34.6814L54.6064 36.8196L52.7874 35.498L50.9683 36.8196L51.6633 34.6814L49.8442 33.3597H52.0926L52.7874 31.2211ZM52.9898 14.4258L53.569 16.208H55.4426L53.9266 17.3092L54.5056 19.0912L52.9898 17.9898L51.4739 19.0912L52.0529 17.3092L50.5371 16.208H52.4107L52.9898 14.4258ZM47.8339 20.8953L48.5287 23.0337H50.7772L48.958 24.3553L49.6531 26.4937L47.8339 25.1721L46.0149 26.4937L46.7097 24.3553L44.8906 23.0337H47.139L47.8339 20.8953Z" fill="#D80027"/>
<path d="M35 0.666016V4.84469L28.8233 8.27469H35V16.3902H26.9181L35 20.8808V23.9988H31.351L21.3043 18.4172V23.9988H13.6957V17.358L1.74248 23.9988H0V19.8217L6.17531 16.3902H0V8.27469H8.08049L0 3.78566V0.666016H3.64766L13.6957 6.24934V0.666016H21.3043V7.30685L33.2577 0.666016H35Z" fill="white"/>
<path d="M19.6875 0.666016H15.3125V10.1453H0V14.5203H15.3125V23.9995H19.6875V14.5203H35V10.1453H19.6875V0.666016Z" fill="#D80027"/>
<path d="M21.3047 16.3906L35.0004 23.9996V21.8478L25.1775 16.3906H21.3047Z" fill="#0052B4"/>
<path d="M21.3047 16.3906L35.0004 23.9996V21.8478L25.1775 16.3906H21.3047Z" fill="white"/>
<path d="M21.3043 16.3906L35 23.9996V21.8478L25.1772 16.3906H21.3043ZM9.8227 16.3906L0 21.8478V23.9996L13.6957 16.3906H9.8227Z" fill="#D80027"/>
<path d="M13.6957 8.27482L0 0.666016V2.81769L9.82283 8.27482H13.6957Z" fill="#0052B4"/>
<path d="M13.6957 8.27482L0 0.666016V2.81769L9.82283 8.27482H13.6957Z" fill="white"/>
<path d="M13.6957 8.27482L0 0.666016V2.8177L9.82283 8.27482H13.6957ZM25.1773 8.27482L35 2.8177V0.666016L21.3043 8.27482H25.1773Z" fill="#D80027"/>
</g>
<defs>
<clipPath id="clip0_6_12235">
<rect width="70" height="46.6666" fill="white" transform="translate(0 0.666016)"/>
</clipPath>
</defs>
</svg>
