<svg width="70" height="47" viewBox="0 0 70 47" fill="none" xmlns="http://www.w3.org/2000/svg">
<g clip-path="url(#clip0_6_12225)">
<path d="M0 0H70V46.6666H0V0Z" fill="white"/>
<path d="M0 0H70V3.32943H0V0ZM0 6.67251H70V10.0019H0V6.67251ZM0 13.3314H70V16.6608H0V13.3314ZM0 20.0039H70V23.3333H0V20.0039ZM0 26.6627H70V29.9922H0V26.6627ZM0 33.3352H70V36.6647H0V33.3352ZM0 39.9941H70V43.3235H0V39.9941Z" fill="#CC0000"/>
<path d="M0 0H35V26.6627H0V0Z" fill="#000066"/>
<path d="M20.918 5.74537C16.7289 4.18982 12.0759 6.31847 10.5203 10.5076C8.96479 14.6966 11.0934 19.3496 15.2825 20.9052C17.0973 21.5875 19.1032 21.5875 20.9316 20.9052C16.7426 24.2483 10.6431 23.5797 7.28642 19.3906C3.9297 15.2015 4.61196 9.10209 8.80104 5.74537C12.3488 2.92081 17.3839 2.92081 20.918 5.74537V5.74537ZM24.5613 15.9793L21.7504 19.1586L22.4872 14.9832L18.2572 14.7649L21.9823 12.7317L19.5125 9.27948L23.4151 10.9169L24.5613 6.83699L25.7075 10.9169L29.61 9.27948L27.1539 12.7454L30.879 14.7785L26.649 14.9968L27.3858 19.1723L24.5613 15.9793V15.9793Z" fill="#FFCC00"/>
</g>
<defs>
<clipPath id="clip0_6_12225">
<rect width="70" height="46.6666" fill="white"/>
</clipPath>
</defs>
</svg>
