<svg width="70" height="48" viewBox="0 0 70 48" fill="none" xmlns="http://www.w3.org/2000/svg">
<g clip-path="url(#clip0_6_12230)">
<path d="M0 0.666016H70V47.3317H0V0.666016Z" fill="white"/>
<path d="M0 47.3317V0.666016L38.3385 24.5576H11.9779L37.0762 47.3317H0Z" fill="#0052B4"/>
<path d="M33.4646 23.163L1.39453 3.17773V45.9371H33.4646L8.36637 23.163H33.4646Z" fill="#D80027"/>
<path d="M13.3984 33.3561L11.4038 32.4178L12.4661 30.486L10.2999 30.9002L10.0254 28.712L8.51672 30.3215L7.00789 28.712L6.73336 30.9002L4.56732 30.4858L5.62963 32.4178L3.63477 33.3561L5.62963 34.2943L4.56732 36.2261L6.7335 35.812L7.00789 38L8.51672 36.3906L10.0254 38L10.2999 35.812L12.466 36.2262L11.4038 34.2944L13.3984 33.3561ZM12.0674 15.2038L10.6166 14.5214L11.3892 13.1163L9.81377 13.4177L9.61402 11.8262L8.51672 12.9966L7.41941 11.8262L7.2198 13.4177L5.64412 13.1163L6.41686 14.5214L4.96586 15.2038L8.51672 15.9139L12.0674 15.2038Z" fill="white"/>
<path d="M12.7775 15.2031C12.7775 17.5563 10.8699 19.464 8.5167 19.464C6.1635 19.464 4.25586 17.5563 4.25586 15.2031" fill="white"/>
</g>
<defs>
<clipPath id="clip0_6_12230">
<rect width="70" height="46.6666" fill="white" transform="translate(0 0.666016)"/>
</clipPath>
</defs>
</svg>
