<svg width="70" height="47" viewBox="0 0 70 47" fill="none" xmlns="http://www.w3.org/2000/svg">
<g clip-path="url(#clip0_6_12205)">
<path d="M0 0.333984H70V47.0006H0V0.333984Z" fill="#01237A"/>
<path d="M52.3977 10.0731L53.1185 12.291H55.4504L53.5638 13.6617L54.2844 15.8796L52.3977 14.5086L50.5112 15.8796L51.2317 13.6617L49.3452 12.291H51.6771L52.3977 10.0731ZM42.8175 14.0413L44.8954 15.0999L46.5443 13.4511L46.1795 15.7543L48.2573 16.813L45.9541 17.1778L45.5892 19.4811L44.5304 17.4033L42.2273 17.7681L43.8765 16.1192L42.8175 14.0413ZM38.8493 23.6214L41.0672 22.9008L41.0673 20.569L42.4379 22.4555L44.6558 21.7347L43.285 23.6214L44.6558 25.508L42.4379 24.7876L41.0673 26.674V24.3421L38.8493 23.6214ZM42.8175 33.2016L43.8762 31.1236L42.2273 29.4747L44.5308 29.8396L45.5892 27.7618L45.9541 30.065L48.2573 30.4296L46.1795 31.4883L46.5443 33.7919L44.8954 32.1426L42.8175 33.2016ZM52.3977 37.1696L51.6771 34.9519H49.3449L51.2317 33.5812L50.5112 31.3633L52.3977 32.7339L54.2844 31.3633L53.5638 33.5812L55.4504 34.9519H53.1185L52.3977 37.1696ZM61.9778 33.2016L59.8998 32.143L58.251 33.7919L58.6158 31.4883L56.538 30.43L58.8412 30.065L59.2062 27.7618L60.2645 29.8396L62.568 29.4747L60.9188 31.1237L61.9778 33.2016ZM65.946 23.6214L63.7281 24.3421V26.674L62.3574 24.7874L60.1395 25.508L61.5103 23.6214L60.1395 21.7347L62.3574 22.4555L63.7281 20.569V22.9008L65.946 23.6214ZM61.9778 14.0416L60.9194 16.1192L62.568 17.7681L60.2645 17.4033L59.2062 19.4811L58.8412 17.1778L56.538 16.8128L58.6158 15.7543L58.251 13.4513L59.8999 15.0999L61.9778 14.0416ZM0 14.1612V16.3445H6.28622L0 20.5352V21.5639L7.82922 16.3443H10.9162L0 23.6219H15.2826V14.1611H0V14.1612ZM13.0994 23.6216H3.08764L13.0994 16.9473V23.6216ZM24.0156 7.61152L34.9318 0.333984H19.6491V9.79475H34.9318V7.61152H28.6456L34.9318 3.42053V2.39182L27.1026 7.61125H24.0156V7.61152ZM21.8324 0.334257H31.8441L21.8324 7.00854V0.334257ZM19.6491 23.6219H34.9318L24.0156 16.3443H27.1026L34.9318 21.564V20.5353L28.6456 16.3445H34.9318V14.1612H19.6491V23.6219V23.6219ZM21.8324 16.9473L31.8441 23.6216H21.8324V16.9473V16.9473ZM15.2826 0.333984H0L10.9162 7.61152H7.82922L0 2.39196V3.42067L6.28622 7.61138H0V9.79462H15.2826V0.333984ZM13.0994 7.00854L3.08764 0.334257H13.0994V7.00854V7.00854Z" fill="white"/>
<path d="M19.6491 0.333984H15.2827V9.79475H0V14.1612H15.2827V23.6219H19.6491V14.1612H34.9318V9.79475H19.6491V0.333984Z" fill="#D80027"/>
<path d="M10.9162 7.61152L0 0.333984V2.39195L7.82922 7.61152H10.9162ZM24.0156 7.61152H27.1026L34.9318 2.39195V0.333984L24.0156 7.61152ZM7.82922 16.3445L0 21.564V23.6219L10.9162 16.3445H7.82922ZM24.0156 16.3445L34.9318 23.6219V21.564L27.1026 16.3445H24.0156Z" fill="#D80027"/>
</g>
<defs>
<clipPath id="clip0_6_12205">
<rect width="70" height="46.6666" fill="white" transform="translate(0 0.333984)"/>
</clipPath>
</defs>
</svg>
