<svg width="70" height="47" viewBox="0 0 70 47" fill="none" xmlns="http://www.w3.org/2000/svg">
<g clip-path="url(#clip0_6_12215)">
<path d="M2.36133 0H67.6401V46.6666H2.36133V0Z" fill="#181A93"/>
<path d="M0 0H70V15.5555H0V0Z" fill="#FFA44A"/>
<path d="M0 31.1113H70V46.6669H0V31.1113Z" fill="#1A9F0B"/>
<path d="M0 15.5547H70V31.1102H0V15.5547Z" fill="white"/>
<path d="M35.0007 27.9993C37.578 27.9993 39.6673 25.91 39.6673 23.3327C39.6673 20.7554 37.578 18.666 35.0007 18.666C32.4233 18.666 30.334 20.7554 30.334 23.3327C30.334 25.91 32.4233 27.9993 35.0007 27.9993Z" fill="white"/>
<path d="M34.9996 29.5558C31.5746 29.5558 28.7773 26.7585 28.7773 23.3335C28.7773 19.9086 31.5746 17.1113 34.9996 17.1113C38.4245 17.1113 41.2218 19.9086 41.2218 23.3335C41.2218 26.7585 38.4245 29.5558 34.9996 29.5558ZM34.9996 28.0002C37.483 28.0002 39.6662 25.817 39.6662 23.3335C39.6662 20.8501 37.4966 18.6669 34.9996 18.6669C32.5025 18.6669 30.3329 20.8501 30.3329 23.3335C30.3329 25.817 32.5161 28.0002 34.9996 28.0002Z" fill="#181A93"/>
<path d="M34.9998 26.4449C36.718 26.4449 38.1109 25.052 38.1109 23.3338C38.1109 21.6155 36.718 20.2227 34.9998 20.2227C33.2816 20.2227 31.8887 21.6155 31.8887 23.3338C31.8887 25.052 33.2816 26.4449 34.9998 26.4449Z" fill="#181A93"/>
</g>
<defs>
<clipPath id="clip0_6_12215">
<rect width="70" height="46.6666" fill="white"/>
</clipPath>
</defs>
</svg>
