<svg width="70" height="47" viewBox="0 0 70 47" fill="none" xmlns="http://www.w3.org/2000/svg">
<g clip-path="url(#clip0_6_12200)">
<path d="M0 0.333984H70V47.0006H0V0.333984Z" fill="#D80027"/>
<path d="M30.9477 32.9742L29.6241 30.8456L27.1816 31.446L28.8054 29.522L27.4818 27.3933L29.8151 28.3349L31.4252 26.4109L31.2479 28.9216L33.5812 29.8631L31.1387 30.4635L30.9477 32.9742ZM39.6533 11.524L38.2751 13.6253L39.858 15.5766L37.4428 14.9216L36.0646 17.0366L35.9282 14.5259L33.513 13.8709L35.8599 12.9704L35.7235 10.4596L37.3063 12.4109L39.6533 11.524ZM32.2303 3.80078L31.9574 6.29785L34.2498 7.33489L31.7937 7.85341L31.5208 10.3505L30.2654 8.16725L27.8229 8.68577L29.5013 6.81637L28.2459 4.64678L30.5383 5.67017L32.2303 3.80078ZM39.9535 22.4128L37.9204 23.9002L38.7118 26.2881L36.6786 24.8144L34.6455 26.3154L35.4096 23.9138L33.3765 22.4538L35.8872 22.4401L36.6514 20.0386L37.4428 22.4265L39.9535 22.4128ZM15.6923 6.65263L18.0529 13.9528H25.7215L19.5266 18.4421L21.8872 25.7423L15.6923 21.2394L9.48372 25.7423L11.858 18.4421L5.64941 13.9528H13.3317L15.6923 6.65263Z" fill="#FFDA44"/>
</g>
<defs>
<clipPath id="clip0_6_12200">
<rect width="70" height="46.6666" fill="white" transform="translate(0 0.333984)"/>
</clipPath>
</defs>
</svg>
