<svg width="70" height="47" viewBox="0 0 70 47" fill="none" xmlns="http://www.w3.org/2000/svg">
<g clip-path="url(#clip0_6_12150)">
<path d="M0 0H70V46.6666H0V0Z" fill="#DB3E00"/>
<path d="M45.166 0H70.0003V46.6666H45.166V0Z" fill="#479900"/>
<path d="M0 0H24.807V46.6666H0V0Z" fill="black"/>
<path d="M34.932 17.2891C32.2849 17.2891 30.1289 19.445 30.1289 22.0922V29.2968H39.7351V22.0922C39.7351 19.4314 37.5792 17.2891 34.932 17.2891V17.2891Z" fill="white"/>
<path d="M34.9321 11.502C28.4233 11.502 23.1426 16.7826 23.1426 23.2914C23.1426 29.8002 28.4233 35.0672 34.9321 35.0672C41.4408 35.0672 46.7215 29.7865 46.7215 23.2778C46.7215 16.769 41.4408 11.502 34.9321 11.502V11.502ZM34.9321 33.0204C29.5558 33.0204 25.1894 28.654 25.1894 23.2778C25.1894 17.9016 29.5558 13.5351 34.9321 13.5351C40.3083 13.5351 44.6747 17.9016 44.6747 23.2778C44.6747 28.6676 40.3083 33.0204 34.9321 33.0204V33.0204Z" fill="white"/>
</g>
<defs>
<clipPath id="clip0_6_12150">
<rect width="70" height="46.6666" fill="white"/>
</clipPath>
</defs>
</svg>
