<svg width="70" height="47" viewBox="0 0 70 47" fill="none" xmlns="http://www.w3.org/2000/svg">
<g clip-path="url(#clip0_6_12270)">
<path d="M0 0H70V46.6666H0V0Z" fill="#E30A17"/>
<path d="M35.4363 16.1843C33.6488 14.888 31.4792 14.1921 29.255 14.2057C23.6878 14.2057 19.1849 18.4085 19.1849 23.6073C19.1849 28.8061 23.7014 33.0088 29.255 33.0088C31.5884 33.0088 33.7443 32.272 35.4363 31.0303C31.3428 36.2973 23.7424 37.2525 18.4753 33.1453C13.2083 29.0381 12.2531 21.4513 16.3603 16.1843C20.4675 10.9172 28.0543 9.96207 33.3213 14.0693C34.1127 14.6833 34.8223 15.4065 35.4363 16.1843V16.1843ZM40.8808 25.1628L38.411 28.1511L38.5747 24.2759L34.9724 22.8568L38.6975 21.8198L38.9431 17.9582L41.0718 21.1921L44.8242 20.2233L42.4363 23.2252L44.524 26.4864L40.8808 25.1628V25.1628Z" fill="white"/>
</g>
<defs>
<clipPath id="clip0_6_12270">
<rect width="70" height="46.6666" fill="white"/>
</clipPath>
</defs>
</svg>
