<svg width="70" height="48" viewBox="0 0 70 48" fill="none" xmlns="http://www.w3.org/2000/svg">
<g clip-path="url(#clip0_6_12170)">
<path d="M0 0.666016H69.8635V47.3326H0V0.666016Z" fill="white"/>
<path d="M0 0.666016H69.8635V16.2216H0V0.666016ZM0 31.7771H69.8635V47.3326H0V31.7771Z" fill="#338AF3"/>
<path d="M34.9991 29.4572C38.0135 29.4572 40.4572 27.0135 40.4572 23.9991C40.4572 20.9847 38.0135 18.541 34.9991 18.541C31.9847 18.541 29.541 20.9847 29.541 23.9991C29.541 27.0135 31.9847 29.4572 34.9991 29.4572Z" fill="#FFDA44"/>
<path fill-rule="evenodd" clip-rule="evenodd" d="M35.0004 18.8815C32.1744 18.8815 29.8834 21.1724 29.8834 23.9984C29.8834 26.8244 32.1744 29.1154 35.0004 29.1154C37.8264 29.1154 40.1174 26.8244 40.1174 23.9984C40.1174 21.1724 37.8264 18.8815 35.0004 18.8815ZM29.2012 23.9984C29.2012 20.7956 31.7976 18.1992 35.0004 18.1992C38.2032 18.1992 40.7996 20.7956 40.7996 23.9984C40.7996 27.2013 38.2032 29.7976 35.0004 29.7976C31.7976 29.7976 29.2012 27.2013 29.2012 23.9984Z" fill="#D6AB00"/>
</g>
<defs>
<clipPath id="clip0_6_12170">
<rect width="70" height="46.6666" fill="white" transform="translate(0 0.666016)"/>
</clipPath>
</defs>
</svg>
