<svg width="70" height="47" viewBox="0 0 70 47" fill="none" xmlns="http://www.w3.org/2000/svg">
<g clip-path="url(#clip0_6_12155)">
<path d="M0 0H70V46.6666H0V0Z" fill="#ED2024"/>
<path d="M25.2773 9.48897V21.9334L30.7996 23.8778L26.9107 27.689L28.7773 30.0223L32.8996 25.7445L33.8329 27.5334L31.4996 31.3445L34.2996 35.7001L32.8996 37.7223L35.0773 40.5223L37.1773 37.6445L36.0107 35.6223L38.344 31.1112L36.244 27.5334L37.1773 25.7445L41.2218 30.0223L43.1662 27.7667L39.1218 23.8001L44.7218 21.7778V9.48897L40.6773 10.9667L40.5996 13.9223L38.0329 14.1556V12.1334L39.3551 10.3445L43.7107 8.63342L41.9218 8.32231L43.0107 7.38897L43.7107 7.70008L43.0885 6.6112L41.9996 7.00009L41.2218 6.14453L36.944 7.00009L38.0329 7.85564L35.0773 11.6667L32.1218 7.93342L33.1329 7.07786L29.244 6.14453L28.1551 7.00009L26.9885 6.68898L26.3662 7.77786L27.0662 7.3112L28.3107 8.16675L26.5218 8.55564L30.7996 10.1112L32.044 11.9001V14.1556L29.4773 13.9223V11.1223L25.2773 9.48897Z" fill="#212121"/>
<path d="M20.377 19.4436H25.3547V21.3881H20.377V19.4436ZM20.377 16.2547H25.3547V18.3547H20.377V16.2547ZM20.377 12.9881H25.3547V15.0103H20.377V12.9881ZM20.377 9.87695H25.3547V11.8214H20.377V9.87695Z" fill="#212121"/>
<path d="M44.6445 19.4436H49.6223V21.3881H44.6445V19.4436ZM44.6445 16.2547H49.6223V18.3547H44.6445V16.2547ZM44.6445 12.9881H49.6223V15.0103H44.6445V12.9881ZM44.6445 9.87695H49.6223V11.8214H44.6445V9.87695Z" fill="#212121"/>
<path d="M41.5327 28.0781H46.5105V29.5559H41.5327V28.0781ZM23.4883 28.0781H28.4661V29.5559H23.4883V28.0781Z" fill="#212121"/>
</g>
<defs>
<clipPath id="clip0_6_12155">
<rect width="70" height="46.6666" fill="white"/>
</clipPath>
</defs>
</svg>
