<svg width="70" height="48" viewBox="0 0 70 48" fill="none" xmlns="http://www.w3.org/2000/svg">
<g clip-path="url(#clip0_6_12185)">
<path d="M0 0.666016H70V47.3326H0V0.666016Z" fill="#10338C"/>
<path d="M30.3189 23.9585C30.3598 23.9175 30.3871 23.8766 30.428 23.8357C30.4007 23.8766 30.3598 23.9175 30.3189 23.9585ZM25.6522 29.6758L27.1532 32.8006L30.5235 32.0228L29.0226 35.1339L31.738 37.2898L28.354 38.054L28.3676 41.5199L25.6522 39.3503L22.9504 41.5199L22.9641 38.054L19.5801 37.2898L22.2955 35.1339L20.7809 32.0228L24.1649 32.8006L25.6522 29.6758ZM52.6561 33.5647L53.3657 35.052L54.9758 34.6836L54.2526 36.1709L55.5489 37.1943L53.9388 37.5491V39.2138L52.6561 38.1768L51.3598 39.2138L51.3735 37.5491L49.7633 37.1943L51.0596 36.1709L50.3364 34.6836L51.9466 35.052L52.6561 33.5647ZM46.0245 17.7363L46.7341 19.2236L48.3442 18.8552L47.621 20.3425L48.9173 21.3659L47.3072 21.7343V23.3854L46.0245 22.3483L44.7282 23.3854L44.7419 21.7343L43.1181 21.3659L44.4144 20.3425L43.6912 18.8552L45.3013 19.2236L46.0245 17.7363ZM52.6561 8.70312L53.3657 10.1905L54.9758 9.82203L54.2526 11.3094L55.5489 12.3328L53.9388 12.7012V14.3522L52.6561 13.3152L51.3598 14.3522L51.3735 12.7012L49.7633 12.3328L51.0596 11.3094L50.3364 9.82203L51.9466 10.1905L52.6561 8.70312ZM58.4553 15.4848L59.1649 16.9721L60.775 16.6037L60.0518 18.091L61.3481 19.1144L59.738 19.4692V21.1339L58.4553 20.0969L57.159 21.1339V19.4692L55.5489 19.1144L56.8452 18.091L56.122 16.6037L57.7321 16.9721L58.4553 15.4848ZM54.3072 23.3854L54.8666 25.1183H56.6814L55.2078 26.1826L55.7809 27.9156L54.3072 26.8376L52.8335 27.9156L53.3929 26.1826L51.9329 25.1183H53.7477L54.3072 23.3854Z" fill="white"/>
<path d="M34.7677 0.666016V4.84145L28.6137 8.2664H34.7677V16.358H26.7034L34.7677 20.8336V23.9584H31.1244L21.0952 18.3775V23.9584H13.5085V17.3268L1.58253 23.9584H-0.164062V19.783L6.00358 16.358H-0.164062V8.2664H7.90026L-0.164062 3.77712V0.666016H3.47921L13.5085 6.23326V0.666016H21.0952V7.29759L33.0348 0.666016H34.7677Z" fill="white"/>
<path d="M19.4851 0.666016H15.1186V10.1221H-0.164062V14.4886H15.1186V23.9584H19.4851V14.4886H34.7677V10.1221H19.4851V0.666016Z" fill="#D80027"/>
<path d="M21.0957 16.3574L34.7682 23.9578V21.8019L24.9709 16.3574H21.0957Z" fill="#0052B4"/>
<path d="M21.0957 16.3574L34.7682 23.9578V21.8019L24.9709 16.3574H21.0957Z" fill="white"/>
<path d="M21.0952 16.3574L34.7677 23.9578V21.8019L24.9704 16.3574H21.0952ZM9.64685 16.3574L-0.164062 21.8019V23.9578L13.5085 16.3574H9.64685Z" fill="#D80027"/>
<path d="M13.5085 8.2664L-0.164062 0.666016V2.80831L9.64685 8.2664H13.5085Z" fill="#0052B4"/>
<path d="M13.5085 8.2664L-0.164062 0.666016V2.80831L9.64685 8.2664H13.5085Z" fill="white"/>
<path d="M13.5085 8.2664L-0.164062 0.666016V2.80831L9.64685 8.2664H13.5085ZM24.9704 8.2664L34.7677 2.80831V0.666016L21.0952 8.2664H24.9704Z" fill="#D80027"/>
</g>
<defs>
<clipPath id="clip0_6_12185">
<rect width="70" height="46.6666" fill="white" transform="translate(0 0.666016)"/>
</clipPath>
</defs>
</svg>
