<svg width="70" height="47" viewBox="0 0 70 47" fill="none" xmlns="http://www.w3.org/2000/svg">
<g clip-path="url(#clip0_6_12160)">
<path d="M0 0H70V46.6666H0V0Z" fill="#FFDA44"/>
<path d="M0 0H23.3333V46.6666H0V0Z" fill="#0052B4"/>
<path d="M46.6669 0H70.0003V46.6666H46.6669V0ZM27.1406 15.501H34.932V24.3431H27.1406V15.501Z" fill="#D80027"/>
<path d="M36.5146 15.5V24.3285V15.5ZM38.7798 15.5V24.3285V15.5ZM41.0449 15.5V24.3285Z" fill="black"/>
<path fill-rule="evenodd" clip-rule="evenodd" d="M36.9923 15.5V24.3285H36.0371V15.5H36.9923ZM39.2574 15.5V24.3285H38.3022V15.5H39.2574ZM40.5673 24.3285V15.5H41.5225V24.3285H40.5673Z" fill="#D80027"/>
<path d="M33.7578 24.3438V33.1722V24.3438ZM31.943 24.3438V33.1722V24.3438ZM30.1282 24.3574V31.7122V24.3574ZM28.2588 24.3574V30.7843Z" fill="black"/>
<path fill-rule="evenodd" clip-rule="evenodd" d="M32.2844 24.3438V33.1722H31.6022V24.3438H32.2844ZM34.0993 24.3438V33.1722H33.417V24.3438H34.0993ZM27.918 30.7843V24.3574H28.6002V30.7843H27.918ZM30.4696 24.3574V31.7122H29.7874V24.3574H30.4696Z" fill="#D80027"/>
<path d="M27.2764 19.921L31.0424 15.5L34.9313 19.9074L31.097 24.3285L27.2764 19.921Z" fill="#FFDA44"/>
<path d="M24.8613 13.0859V25.6668C24.8613 30.3471 28.5865 33.0625 31.4929 34.468C31.3837 34.659 34.9179 35.6005 34.9179 35.6005C34.9179 35.6005 38.452 34.659 38.3428 34.468C41.2629 33.0625 44.9744 30.3608 44.9744 25.6668V13.0859H24.8613ZM42.5865 25.6668C42.5865 27.9729 41.222 29.6785 38.1108 31.6571C36.9374 32.4076 35.7229 32.8851 34.9315 33.158C34.1401 32.8851 32.9257 32.4076 31.7522 31.6571C28.6411 29.6785 27.2765 27.8364 27.2765 25.6668V15.5011H42.5865V25.6668V25.6668Z" fill="#BC8B00"/>
<path d="M36.0781 25.7754H40.1035V26.9489H36.0781V25.7754ZM36.0781 28.1769H40.1035V29.3504H36.0781V28.1769Z" fill="#D80027"/>
</g>
<defs>
<clipPath id="clip0_6_12160">
<rect width="70" height="46.6666" fill="white"/>
</clipPath>
</defs>
</svg>
