<svg width="70" height="48" viewBox="0 0 70 48" fill="none" xmlns="http://www.w3.org/2000/svg">
<g clip-path="url(#clip0_6_12175)">
<path d="M0 0.666016H70V47.3326H0V0.666016Z" fill="black"/>
<path d="M12.1163 19.291C11.8161 21.0512 11.6523 22.8661 11.6523 24.7218C11.6523 26.5776 11.8161 28.406 12.1163 30.1526L34.9311 31.8173L57.7459 30.1662C58.0461 28.406 58.2099 26.5912 58.2099 24.7355C58.2099 22.8797 58.0461 21.0512 57.7459 19.3047" fill="#0072C6"/>
<path d="M57.7468 30.5488H12.1172C14.2731 40.0732 23.6747 47.2369 34.932 47.2369C46.1893 47.2369 55.5909 40.0732 57.7468 30.5488Z" fill="white"/>
<path d="M49.9277 19.2924H19.9355L26.0623 16.4133L22.801 10.4776L29.4599 11.7603L30.2923 5.0332L34.9316 9.97277L39.571 5.0332L40.4034 11.7603L47.0622 10.4776L43.801 16.4133L49.9277 19.2924Z" fill="#FFDA44"/>
<path d="M35 47.3326L0 0.666016V47.3326H35Z" fill="#CE1126"/>
<path d="M69.9999 47.3326V0.666016L34.9316 47.3326H69.9999Z" fill="#CE1126"/>
</g>
<defs>
<clipPath id="clip0_6_12175">
<rect width="70" height="46.6666" fill="white" transform="translate(0 0.666016)"/>
</clipPath>
</defs>
</svg>
