<svg width="272" height="547" viewBox="0 0 272 547" fill="none" xmlns="http://www.w3.org/2000/svg">
<path d="M272 130.297H269.003V48.1883C269.003 41.9476 267.774 35.768 265.385 30.0023C262.997 24.2366 259.497 18.9978 255.084 14.585C250.671 10.1721 245.432 6.67167 239.667 4.28344C233.901 1.89522 227.721 0.666021 221.481 0.666016H47.5223C41.2816 0.666002 35.102 1.89519 29.3363 4.28339C23.5707 6.67159 18.3319 10.172 13.919 14.5849C9.50614 18.9977 6.00568 24.2365 3.61746 30.0022C1.22923 35.7678 1.12098e-05 41.9474 0 48.1881V498.642C-1.02905e-05 511.246 5.00676 523.334 13.9189 532.246C22.831 541.158 34.9185 546.165 47.5222 546.165H221.48C234.084 546.165 246.172 541.158 255.084 532.246C263.996 523.334 269.003 511.246 269.003 498.643V188.743H272V130.297Z" fill="#3F3D56"/>
<path d="M223.398 13.0293H200.691C201.735 15.5895 202.134 18.3672 201.852 21.1177C201.57 23.8682 200.615 26.5071 199.073 28.8019C197.531 31.0968 195.448 32.9771 193.008 34.2774C190.568 35.5776 187.845 36.2577 185.08 36.258H85.4218C82.6569 36.2578 79.9344 35.5776 77.4942 34.2774C75.0541 32.9771 72.9712 31.0968 71.4289 28.8019C69.8867 26.5071 68.9324 23.8682 68.6503 21.1177C68.3682 18.3671 68.7668 15.5895 69.811 13.0293H48.6024C39.1901 13.0293 30.1633 16.7683 23.5078 23.4238C16.8523 30.0793 13.1133 39.106 13.1133 48.5183V498.312C13.1133 502.972 14.0312 507.587 15.8147 511.893C17.5982 516.199 20.2123 520.111 23.5078 523.406C26.8032 526.702 30.7155 529.316 35.0212 531.099C39.327 532.883 43.9418 533.801 48.6023 533.801H223.398C228.059 533.801 232.674 532.883 236.979 531.099C241.285 529.316 245.197 526.702 248.493 523.406C251.788 520.111 254.402 516.199 256.186 511.893C257.969 507.587 258.887 502.972 258.887 498.312V48.5184C258.887 43.8579 257.969 39.243 256.186 34.9373C254.402 30.6315 251.788 26.7193 248.493 23.4238C245.197 20.1283 241.285 17.5142 236.979 15.7307C232.674 13.9473 228.059 13.0293 223.398 13.0293Z" fill="white"/>
<path d="M219.019 526.078H52.9805C33.9022 526.078 18.3809 512.224 18.3809 495.196V472.839C18.3809 459.266 30.7419 448.225 45.9354 448.225H226.064C241.258 448.225 253.619 459.266 253.619 472.839V495.196C253.619 512.224 238.098 526.078 219.019 526.078Z" fill="#E5E5E5"/>
<path d="M70.434 150.315H33.397C32.7336 150.315 32.0975 150.051 31.6284 149.582C31.1592 149.112 30.8953 148.476 30.8945 147.813V110.776C30.8953 110.112 31.1592 109.476 31.6284 109.007C32.0975 108.538 32.7336 108.274 33.397 108.273H70.434C71.0975 108.274 71.7336 108.538 72.2027 109.007C72.6718 109.476 72.9357 110.112 72.9365 110.776V147.813C72.9357 148.476 72.6718 149.112 72.2027 149.582C71.7336 150.051 71.0975 150.315 70.434 150.315Z" fill="#769262"/>
<path d="M126.491 150.315H89.4536C88.7902 150.315 88.1541 150.051 87.685 149.582C87.2158 149.112 86.952 148.476 86.9512 147.813V110.776C86.952 110.112 87.2158 109.476 87.685 109.007C88.1541 108.538 88.7902 108.274 89.4536 108.273H126.491C127.154 108.274 127.79 108.538 128.259 109.007C128.728 109.476 128.992 110.112 128.993 110.776V147.813C128.992 148.476 128.728 149.112 128.259 149.582C127.79 150.051 127.154 150.315 126.491 150.315Z" fill="#E5E5E5"/>
<path d="M182.547 150.315H145.51C144.847 150.315 144.211 150.051 143.742 149.582C143.272 149.112 143.009 148.476 143.008 147.813V110.776C143.009 110.112 143.272 109.476 143.742 109.007C144.211 108.538 144.847 108.274 145.51 108.273H182.547C183.211 108.274 183.847 108.538 184.316 109.007C184.785 109.476 185.049 110.112 185.05 110.776V147.813C185.049 148.476 184.785 149.112 184.316 149.582C183.847 150.051 183.211 150.315 182.547 150.315Z" fill="#E5E5E5"/>
<path d="M238.602 150.315H201.565C200.902 150.315 200.265 150.051 199.796 149.582C199.327 149.112 199.063 148.476 199.062 147.813V110.776C199.063 110.112 199.327 109.476 199.796 109.007C200.265 108.538 200.902 108.274 201.565 108.273H238.602C239.265 108.274 239.901 108.538 240.371 109.007C240.84 109.476 241.104 110.112 241.104 110.776V147.813C241.104 148.476 240.84 149.112 240.371 149.582C239.901 150.051 239.265 150.315 238.602 150.315Z" fill="#E5E5E5"/>
<path d="M70.3012 218.884H33.2642C32.6007 218.883 31.9647 218.619 31.4956 218.15C31.0264 217.681 30.7625 217.045 30.7617 216.381V179.344C30.7625 178.681 31.0264 178.045 31.4956 177.576C31.9647 177.106 32.6007 176.843 33.2642 176.842H70.3012C70.9646 176.843 71.6007 177.106 72.0699 177.576C72.539 178.045 72.8029 178.681 72.8037 179.344V216.381C72.8029 217.045 72.539 217.681 72.0699 218.15C71.6007 218.619 70.9646 218.883 70.3012 218.884Z" fill="#E5E5E5"/>
<path d="M126.358 218.884H89.3208C88.6574 218.883 88.0213 218.619 87.5522 218.15C87.083 217.681 86.8191 217.045 86.8184 216.381V179.344C86.8191 178.681 87.083 178.045 87.5522 177.576C88.0213 177.106 88.6574 176.843 89.3208 176.842H126.358C127.021 176.843 127.657 177.106 128.126 177.576C128.596 178.045 128.86 178.681 128.86 179.344V216.381C128.86 217.045 128.596 217.681 128.126 218.15C127.657 218.619 127.021 218.883 126.358 218.884Z" fill="#E5E5E5"/>
<path d="M182.414 218.884H145.378C144.714 218.883 144.078 218.619 143.609 218.15C143.14 217.681 142.876 217.045 142.875 216.381V179.344C142.876 178.681 143.14 178.045 143.609 177.576C144.078 177.106 144.714 176.843 145.378 176.842H182.414C183.078 176.843 183.714 177.106 184.183 177.576C184.652 178.045 184.916 178.681 184.917 179.344V216.381C184.916 217.045 184.652 217.681 184.183 218.15C183.714 218.619 183.078 218.883 182.414 218.884Z" fill="#769262"/>
<path d="M238.47 218.884H201.433C200.77 218.883 200.134 218.619 199.665 218.15C199.195 217.681 198.931 217.045 198.931 216.381V179.344C198.931 178.681 199.195 178.045 199.665 177.576C200.134 177.106 200.77 176.843 201.433 176.842H238.47C239.134 176.843 239.77 177.106 240.239 177.576C240.708 178.045 240.972 178.681 240.973 179.344V216.381C240.972 217.045 240.708 217.681 240.239 218.15C239.77 218.619 239.134 218.883 238.47 218.884Z" fill="#769262"/>
<path d="M70.1703 287.452H33.1334C32.4699 287.451 31.8338 287.187 31.3647 286.718C30.8956 286.249 30.6316 285.613 30.6309 284.95V247.913C30.6316 247.249 30.8956 246.613 31.3647 246.144C31.8338 245.675 32.4699 245.411 33.1334 245.41H70.1703C70.8338 245.411 71.4699 245.675 71.939 246.144C72.4081 246.613 72.672 247.249 72.6728 247.913V284.95C72.672 285.613 72.4081 286.249 71.939 286.718C71.4699 287.187 70.8338 287.451 70.1703 287.452Z" fill="#E5E5E5"/>
<path d="M126.225 287.452H89.188C88.5245 287.451 87.8885 287.187 87.4194 286.718C86.9502 286.249 86.6863 285.613 86.6855 284.95V247.913C86.6863 247.249 86.9502 246.613 87.4194 246.144C87.8885 245.675 88.5246 245.411 89.188 245.41H126.225C126.888 245.411 127.525 245.675 127.994 246.144C128.463 246.613 128.727 247.249 128.728 247.913V284.95C128.727 285.613 128.463 286.249 127.994 286.718C127.525 287.187 126.888 287.451 126.225 287.452Z" fill="#E5E5E5"/>
<path d="M182.282 287.452H145.245C144.581 287.451 143.945 287.187 143.476 286.718C143.007 286.249 142.743 285.613 142.742 284.95V247.913C142.743 247.249 143.007 246.613 143.476 246.144C143.945 245.675 144.581 245.411 145.245 245.41H182.282C182.945 245.411 183.581 245.675 184.05 246.144C184.519 246.613 184.783 247.249 184.784 247.913V284.95C184.783 285.613 184.519 286.249 184.05 286.718C183.581 287.187 182.945 287.451 182.282 287.452Z" fill="#E5E5E5"/>
<path d="M238.337 287.452H201.3C200.637 287.451 200.001 287.187 199.532 286.718C199.063 286.249 198.799 285.613 198.798 284.95V247.913C198.799 247.249 199.063 246.613 199.532 246.144C200.001 245.675 200.637 245.411 201.3 245.41H238.337C239.001 245.411 239.637 245.675 240.106 246.144C240.575 246.613 240.839 247.249 240.84 247.913V284.95C240.839 285.613 240.575 286.249 240.106 286.718C239.637 287.187 239.001 287.451 238.337 287.452Z" fill="#E5E5E5"/>
<path d="M70.0375 356.02H33.0005C32.3371 356.02 31.701 355.756 31.2319 355.287C30.7627 354.817 30.4988 354.181 30.498 353.518V316.481C30.4988 315.818 30.7627 315.181 31.2319 314.712C31.701 314.243 32.3371 313.979 33.0005 313.979H70.0375C70.701 313.979 71.337 314.243 71.8062 314.712C72.2753 315.181 72.5392 315.818 72.54 316.481V353.518C72.5392 354.181 72.2753 354.817 71.8062 355.287C71.337 355.756 70.701 356.02 70.0375 356.02Z" fill="#E5E5E5"/>
<path d="M126.092 356.02H89.0552C88.3917 356.02 87.7557 355.756 87.2865 355.287C86.8174 354.817 86.5535 354.181 86.5527 353.518V316.481C86.5535 315.818 86.8174 315.181 87.2865 314.712C87.7557 314.243 88.3917 313.979 89.0552 313.979H126.092C126.756 313.979 127.392 314.243 127.861 314.712C128.33 315.181 128.594 315.818 128.595 316.481V353.518C128.594 354.181 128.33 354.817 127.861 355.287C127.392 355.756 126.756 356.02 126.092 356.02Z" fill="#E5E5E5"/>
<path d="M182.149 356.02H145.112C144.448 356.02 143.812 355.756 143.343 355.287C142.874 354.817 142.61 354.181 142.609 353.518V316.481C142.61 315.818 142.874 315.181 143.343 314.712C143.812 314.243 144.448 313.979 145.112 313.979H182.149C182.812 313.979 183.448 314.243 183.917 314.712C184.387 315.181 184.651 315.818 184.651 316.481V353.518C184.651 354.181 184.387 354.817 183.918 355.287C183.448 355.756 182.812 356.02 182.149 356.02Z" fill="#E5E5E5"/>
<path d="M238.205 356.02H201.168C200.504 356.02 199.868 355.756 199.399 355.287C198.93 354.817 198.666 354.181 198.665 353.518V316.481C198.666 315.818 198.93 315.181 199.399 314.712C199.868 314.243 200.504 313.979 201.168 313.979H238.205C238.868 313.979 239.504 314.243 239.973 314.712C240.442 315.181 240.706 315.818 240.707 316.481V353.518C240.706 354.181 240.442 354.817 239.973 355.287C239.504 355.756 238.868 356.02 238.205 356.02Z" fill="#E5E5E5"/>
<path d="M70.434 509.173H33.397C32.7336 509.172 32.0975 508.908 31.6284 508.439C31.1592 507.97 30.8953 507.334 30.8945 506.67V469.633C30.8953 468.97 31.1592 468.334 31.6284 467.865C32.0975 467.396 32.7336 467.132 33.397 467.131H70.434C71.0975 467.132 71.7336 467.396 72.2027 467.865C72.6718 468.334 72.9357 468.97 72.9365 469.633V506.67C72.9357 507.334 72.6718 507.97 72.2027 508.439C71.7336 508.908 71.0975 509.172 70.434 509.173Z" fill="white"/>
<path d="M126.491 509.173H89.4536C88.7902 509.172 88.1541 508.908 87.685 508.439C87.2158 507.97 86.952 507.334 86.9512 506.67V469.633C86.952 468.97 87.2158 468.334 87.685 467.865C88.1541 467.396 88.7902 467.132 89.4536 467.131H126.491C127.154 467.132 127.79 467.396 128.259 467.865C128.728 468.334 128.992 468.97 128.993 469.633V506.67C128.992 507.334 128.728 507.97 128.259 508.439C127.79 508.908 127.154 509.172 126.491 509.173Z" fill="white"/>
<path d="M182.547 509.173H145.51C144.847 509.172 144.211 508.908 143.742 508.439C143.272 507.97 143.009 507.334 143.008 506.67V469.633C143.009 468.97 143.272 468.334 143.742 467.865C144.211 467.396 144.847 467.132 145.51 467.131H182.547C183.211 467.132 183.847 467.396 184.316 467.865C184.785 468.334 185.049 468.97 185.05 469.633V506.67C185.049 507.334 184.785 507.97 184.316 508.439C183.847 508.908 183.211 509.172 182.547 509.173Z" fill="white"/>
<path d="M238.602 509.173H201.565C200.902 509.172 200.265 508.908 199.796 508.439C199.327 507.97 199.063 507.334 199.062 506.67V469.633C199.063 468.97 199.327 468.334 199.796 467.865C200.265 467.396 200.902 467.132 201.565 467.131H238.602C239.265 467.132 239.901 467.396 240.371 467.865C240.84 468.334 241.104 468.97 241.104 469.633V506.67C241.104 507.334 240.84 507.97 240.371 508.439C239.901 508.908 239.265 509.172 238.602 509.173Z" fill="white"/>
<path d="M117.849 431.096C120.613 431.096 122.854 428.855 122.854 426.091C122.854 423.327 120.613 421.086 117.849 421.086C115.085 421.086 112.844 423.327 112.844 426.091C112.844 428.855 115.085 431.096 117.849 431.096Z" fill="#E5E5E5"/>
<path d="M135.868 431.096C138.632 431.096 140.873 428.855 140.873 426.091C140.873 423.327 138.632 421.086 135.868 421.086C133.104 421.086 130.863 423.327 130.863 426.091C130.863 428.855 133.104 431.096 135.868 431.096Z" fill="#E5E5E5"/>
<path d="M153.886 431.096C156.65 431.096 158.891 428.855 158.891 426.091C158.891 423.327 156.65 421.086 153.886 421.086C151.122 421.086 148.881 423.327 148.881 426.091C148.881 428.855 151.122 431.096 153.886 431.096Z" fill="#E5E5E5"/>
</svg>
