<svg width="12" height="12" viewBox="0 0 12 12" fill="none" xmlns="http://www.w3.org/2000/svg">
<g clip-path="url(#clip0_9_16606)">
<path d="M6.33718 1.62014L7.14949 3.24475C7.26026 3.47091 7.55564 3.68783 7.80487 3.72937L9.27718 3.97398C10.2187 4.13091 10.4403 4.81398 9.7618 5.48783L8.61718 6.63245C8.42334 6.82629 8.31718 7.20014 8.37718 7.46783L8.70487 8.88475C8.96334 10.0063 8.36795 10.4401 7.37564 9.85399L5.99564 9.03706C5.74641 8.88937 5.33564 8.88937 5.0818 9.03706L3.7018 9.85399C2.7141 10.4401 2.1141 10.0017 2.37257 8.88475L2.70026 7.46783C2.76026 7.20014 2.6541 6.82629 2.46026 6.63245L1.31564 5.48783C0.641797 4.81398 0.85872 4.13091 1.80026 3.97398L3.27257 3.72937C3.51718 3.68783 3.81257 3.47091 3.92334 3.24475L4.73564 1.62014C5.17872 0.7386 5.89872 0.7386 6.33718 1.62014Z" fill="#FFC100"/>
</g>
<defs>
<clipPath id="clip0_9_16606">
<rect width="12" height="12" fill="white"/>
</clipPath>
</defs>
</svg>
