<svg width="16" height="16" viewBox="0 0 16 16" fill="none" xmlns="http://www.w3.org/2000/svg">
<path d="M12.667 7.33317H8.66699V3.33317C8.66699 3.15636 8.59675 2.98679 8.47173 2.86177C8.34671 2.73674 8.17714 2.6665 8.00033 2.6665C7.82351 2.6665 7.65395 2.73674 7.52892 2.86177C7.4039 2.98679 7.33366 3.15636 7.33366 3.33317V7.33317H3.33366C3.15685 7.33317 2.98728 7.40341 2.86225 7.52843C2.73723 7.65346 2.66699 7.82303 2.66699 7.99984C2.66699 8.17665 2.73723 8.34622 2.86225 8.47124C2.98728 8.59627 3.15685 8.6665 3.33366 8.6665H7.33366V12.6665C7.33366 12.8433 7.4039 13.0129 7.52892 13.1379C7.65395 13.2629 7.82351 13.3332 8.00033 13.3332C8.17714 13.3332 8.34671 13.2629 8.47173 13.1379C8.59675 13.0129 8.66699 12.8433 8.66699 12.6665V8.6665H12.667C12.8438 8.6665 13.0134 8.59627 13.1384 8.47124C13.2634 8.34622 13.3337 8.17665 13.3337 7.99984C13.3337 7.82303 13.2634 7.65346 13.1384 7.52843C13.0134 7.40341 12.8438 7.33317 12.667 7.33317Z" fill="black"/>
</svg>
