<svg width="250" height="502" viewBox="0 0 250 502" fill="none" xmlns="http://www.w3.org/2000/svg">
<path d="M250 119.605H247.245V44.1375C247.245 32.5532 242.643 21.4434 234.452 13.2521C226.261 5.06082 215.151 0.458992 203.567 0.458984H43.6786C37.9427 0.458971 32.2629 1.58873 26.9635 3.78377C21.6642 5.97881 16.8491 9.19615 12.7932 13.2521C8.73727 17.308 5.51992 22.123 3.32486 27.4224C1.1298 32.7217 9.71974e-06 38.4014 0 44.1374V458.158C-9.81493e-06 469.742 4.60181 480.852 12.7931 489.043C20.9844 497.235 32.0942 501.836 43.6785 501.836H203.566C215.151 501.836 226.261 497.235 234.452 489.043C242.643 480.852 247.245 469.742 247.245 458.158V173.324H250V119.605Z" fill="black"/>
<path d="M205.328 11.8223H184.458C185.418 14.1754 185.784 16.7284 185.525 19.2564C185.265 21.7845 184.388 24.2099 182.971 26.3192C181.553 28.4284 179.639 30.1567 177.396 31.3517C175.153 32.5468 172.651 33.1719 170.11 33.1721H78.5118C75.9705 33.1719 73.4683 32.5468 71.2255 31.3517C68.9827 30.1567 67.0683 28.4284 65.6507 26.3192C64.2332 24.2099 63.3562 21.7845 63.0969 19.2564C62.8375 16.7284 63.2039 14.1754 64.1637 11.8223H44.6704C40.3869 11.8223 36.1453 12.666 32.1878 14.3052C28.2303 15.9444 24.6345 18.3471 21.6056 21.376C18.5766 24.4049 16.174 28.0008 14.5347 31.9582C12.8955 35.9157 12.0518 40.1573 12.0518 44.4408V457.854C12.0518 462.137 12.8954 466.379 14.5347 470.336C16.1739 474.294 18.5766 477.89 21.6055 480.919C24.6344 483.948 28.2303 486.35 32.1878 487.99C36.1452 489.629 40.3868 490.472 44.6703 490.473H205.328C213.979 490.473 222.276 487.036 228.393 480.919C234.511 474.802 237.947 466.505 237.947 457.854V44.4409C237.947 40.1574 237.103 35.9158 235.464 31.9583C233.825 28.0008 231.422 24.405 228.393 21.3761C225.364 18.3471 221.769 15.9445 217.811 14.3052C213.854 12.666 209.612 11.8223 205.328 11.8223Z" fill="white"/>
<path d="M147.173 385.248C147.173 401.355 134.82 414.412 119.581 414.412C104.342 414.412 91.9893 401.355 91.9893 385.248C91.9893 384.883 91.9948 384.52 92.0096 384.158C92.2893 368.054 104.871 355.244 120.107 355.544C135.343 355.845 147.463 369.144 147.178 385.248H147.173Z" fill="#034249"/>
<path d="M109.464 397.853L101.188 387.393L103.148 385.999L109.89 394.52L136.433 373.936L137.984 375.733L109.464 397.853Z" fill="white"/>
<path d="M28.3276 103.486C27.6454 103.488 26.9915 103.779 26.5095 104.296C26.0275 104.814 25.7568 105.515 25.7568 106.246C25.7568 106.977 26.0275 107.678 26.5095 108.196C26.9915 108.713 27.6454 109.004 28.3276 109.006H216.364C217.046 109.004 217.7 108.713 218.182 108.196C218.664 107.678 218.935 106.977 218.935 106.246C218.935 105.515 218.664 104.814 218.182 104.296C217.7 103.779 217.046 103.488 216.364 103.486H28.3276Z" fill="#CCCCCC"/>
<path d="M28.3566 118.205C27.6682 118.205 27.0078 118.494 26.5204 119.011C26.0329 119.527 25.7583 120.228 25.7568 120.959C25.7554 121.69 26.0272 122.392 26.5126 122.911C26.998 123.429 27.6573 123.722 28.3457 123.724H148.265C148.606 123.724 148.944 123.653 149.259 123.514C149.574 123.376 149.86 123.172 150.102 122.916C150.343 122.66 150.534 122.356 150.665 122.021C150.795 121.686 150.863 121.327 150.863 120.965C150.863 120.602 150.795 120.243 150.665 119.909C150.534 119.574 150.343 119.27 150.102 119.013C149.86 118.757 149.574 118.554 149.259 118.415C148.944 118.276 148.606 118.205 148.265 118.205H28.3566Z" fill="#CCCCCC"/>
<path d="M215.251 83.3517C215.251 89.3919 210.31 94.2884 204.215 94.2884C198.119 94.2884 193.178 89.3919 193.178 83.3517C193.178 83.2148 193.18 83.0789 193.186 82.9431C193.298 76.9041 198.331 72.1001 204.425 72.2129C210.519 72.3257 215.367 77.3127 215.253 83.3517H215.251Z" fill="#034249"/>
<path d="M199.754 88.7693L196.857 84.7462L197.543 84.2099L199.903 87.4874L209.193 79.5703L209.736 80.2618L199.754 88.7693Z" fill="white"/>
<path d="M28.3276 197.316C27.6454 197.318 26.9915 197.609 26.5095 198.126C26.0275 198.644 25.7568 199.345 25.7568 200.076C25.7568 200.807 26.0275 201.508 26.5095 202.026C26.9915 202.543 27.6454 202.834 28.3276 202.836H216.364C217.046 202.834 217.7 202.543 218.182 202.026C218.664 201.508 218.935 200.807 218.935 200.076C218.935 199.345 218.664 198.644 218.182 198.126C217.7 197.609 217.046 197.318 216.364 197.316H28.3276Z" fill="#CCCCCC"/>
<path d="M28.3566 213.875C27.6682 213.875 27.0078 214.068 26.5204 214.412C26.0329 214.756 25.7583 215.223 25.7568 215.711C25.7554 216.198 26.0272 216.666 26.5126 217.012C26.998 217.358 27.6573 217.553 28.3457 217.555H148.265C148.954 217.555 149.614 217.361 150.102 217.016C150.589 216.671 150.863 216.203 150.863 215.715C150.863 215.227 150.589 214.759 150.102 214.414C149.614 214.069 148.954 213.875 148.265 213.875H28.3566Z" fill="#CCCCCC"/>
<path d="M213.412 178.11C213.412 184.654 208.47 189.958 202.375 189.958C196.279 189.958 191.338 184.654 191.338 178.11C191.338 177.962 191.34 177.815 191.346 177.668C191.458 171.125 196.491 165.921 202.585 166.043C208.679 166.165 213.527 171.568 213.413 178.11H213.412Z" fill="#034249"/>
<path d="M198.328 182.597L195.018 178.574L195.801 178.038L198.498 181.316L209.115 173.398L209.736 174.09L198.328 182.597Z" fill="white"/>
<path d="M28.3276 292.986C27.6454 292.987 26.9915 293.181 26.5095 293.526C26.0275 293.871 25.7568 294.339 25.7568 294.826C25.7568 295.313 26.0275 295.781 26.5095 296.126C26.9915 296.471 27.6454 296.665 28.3276 296.666H216.364C217.046 296.665 217.7 296.471 218.182 296.126C218.664 295.781 218.935 295.313 218.935 294.826C218.935 294.339 218.664 293.871 218.182 293.526C217.7 293.181 217.046 292.987 216.364 292.986H28.3276Z" fill="#CCCCCC"/>
<path d="M28.3566 307.703C27.6682 307.703 27.0078 307.992 26.5204 308.509C26.0329 309.025 25.7583 309.726 25.7568 310.457C25.7554 311.188 26.0272 311.89 26.5126 312.409C26.998 312.927 27.6573 313.22 28.3457 313.222H148.265C148.954 313.222 149.614 312.932 150.102 312.414C150.589 311.897 150.863 311.195 150.863 310.463C150.863 309.731 150.589 309.029 150.102 308.511C149.614 307.994 148.954 307.703 148.265 307.703H28.3566Z" fill="#CCCCCC"/>
<path d="M213.412 272.85C213.412 278.89 208.47 283.786 202.375 283.786C196.279 283.786 191.338 278.89 191.338 272.85C191.338 272.713 191.34 272.577 191.346 272.441C191.458 266.402 196.491 261.598 202.585 261.711C208.679 261.824 213.527 266.811 213.413 272.85H213.412Z" fill="#034249"/>
<path d="M198.328 278.267L195.018 273.44L195.801 272.796L198.498 276.729L209.115 267.229L209.736 268.058L198.328 278.267Z" fill="white"/>
</svg>
