<svg width="251" height="502" viewBox="0 0 251 502" fill="none" xmlns="http://www.w3.org/2000/svg">
<path d="M250.5 119.682H247.745V44.2302C247.745 32.6483 243.143 21.5407 234.952 13.3511C226.761 5.16145 215.651 0.560554 204.067 0.560547H44.1786C38.4427 0.560534 32.7629 1.69007 27.4635 3.88466C22.1642 6.07925 17.3491 9.29593 13.2932 13.351C9.23727 17.4061 6.01992 22.2202 3.82486 27.5184C1.6298 32.8167 0.50001 38.4953 0.5 44.2301V458.166C0.49999 469.748 5.10181 480.856 13.2931 489.046C21.4844 497.235 32.5942 501.836 44.1785 501.836H204.066C215.651 501.836 226.761 497.235 234.952 489.046C243.143 480.856 247.745 469.748 247.745 458.167V173.39H250.5V119.682Z" fill="black"/>
<path d="M205.829 11.9219H184.959C185.919 14.2745 186.285 16.827 186.026 19.3545C185.766 21.8821 184.889 24.307 183.472 26.4158C182.054 28.5247 180.14 30.2526 177.897 31.4474C175.654 32.6422 173.152 33.2672 170.611 33.2674H79.0128C76.4715 33.2672 73.9692 32.6422 71.7265 31.4474C69.4837 30.2526 67.5692 28.5246 66.1517 26.4158C64.7342 24.307 63.8571 21.882 63.5978 19.3545C63.3385 16.827 63.7049 14.2745 64.6647 11.9219H45.1714C40.8879 11.9219 36.6463 12.7654 32.6888 14.4043C28.7313 16.0432 25.1355 18.4454 22.1065 21.4737C19.0776 24.502 16.6749 28.0971 15.0357 32.0538C13.3964 36.0104 12.5527 40.2512 12.5527 44.5338V457.863C12.5527 462.146 13.3964 466.386 15.0357 470.343C16.6749 474.3 19.0776 477.895 22.1065 480.923C25.1354 483.951 28.7313 486.353 32.6887 487.992C36.6462 489.631 40.8878 490.475 45.1713 490.475H205.829C214.48 490.475 222.777 487.039 228.894 480.923C235.012 474.807 238.448 466.512 238.448 457.863V44.5339C238.448 40.2512 237.604 36.0105 235.965 32.0538C234.326 28.0972 231.923 24.502 228.894 21.4737C225.865 18.4454 222.27 16.0432 218.312 14.4043C214.355 12.7654 210.113 11.9219 205.829 11.9219Z" fill="white"/>
<path d="M126.462 329.689C169.611 329.689 204.59 294.717 204.59 251.577C204.59 208.437 169.611 173.465 126.462 173.465C83.3131 173.465 48.334 208.437 48.334 251.577C48.334 294.717 83.3131 329.689 126.462 329.689Z" fill="#034249"/>
<path d="M149.615 256.917L130.186 276.924C129.763 277.35 129.258 277.686 128.701 277.91C128.144 278.134 127.548 278.243 126.948 278.229H126.883C126.282 278.242 125.684 278.133 125.126 277.909C124.568 277.685 124.061 277.35 123.635 276.924L104.216 256.917C104.151 256.843 104.077 256.778 104.012 256.713C103.237 255.882 102.824 254.777 102.862 253.642C102.9 252.506 103.387 251.432 104.216 250.654C105.103 249.821 106.274 249.357 107.491 249.357C108.708 249.357 109.88 249.821 110.766 250.654L122.276 262.679V231.674C122.329 230.479 122.841 229.352 123.706 228.526C124.57 227.699 125.72 227.238 126.915 227.238C128.111 227.238 129.261 227.699 130.125 228.526C130.989 229.352 131.501 230.479 131.555 231.674V262.679L143.055 250.654C143.944 249.821 145.117 249.357 146.335 249.357C147.553 249.357 148.726 249.821 149.615 250.654C149.68 250.719 149.744 250.784 149.818 250.858C150.591 251.69 151.004 252.794 150.966 253.929C150.927 255.064 150.442 256.138 149.615 256.917Z" fill="white"/>
</svg>
