<svg width="250" height="502" viewBox="0 0 250 502" fill="none" xmlns="http://www.w3.org/2000/svg">
<path d="M250 119.605H247.245V44.1375C247.245 32.5532 242.643 21.4434 234.452 13.2521C226.261 5.06082 215.151 0.458992 203.567 0.458984H43.6786C37.9427 0.458971 32.2629 1.58873 26.9635 3.78377C21.6642 5.97881 16.8491 9.19615 12.7932 13.2521C8.73727 17.308 5.51992 22.123 3.32486 27.4224C1.1298 32.7217 9.71974e-06 38.4014 0 44.1374V458.158C-9.81493e-06 469.742 4.60181 480.852 12.7931 489.043C20.9844 497.235 32.0942 501.836 43.6785 501.836H203.566C215.151 501.836 226.261 497.235 234.452 489.043C242.643 480.852 247.245 469.742 247.245 458.158V173.324H250V119.605Z" fill="black"/>
<path d="M205.329 11.8223H184.459C185.419 14.1754 185.785 16.7284 185.526 19.2564C185.266 21.7845 184.389 24.2099 182.972 26.3192C181.554 28.4284 179.64 30.1567 177.397 31.3517C175.154 32.5468 172.652 33.1719 170.111 33.1721H78.5128C75.9715 33.1719 73.4692 32.5468 71.2265 31.3517C68.9837 30.1567 67.0692 28.4284 65.6517 26.3192C64.2342 24.2099 63.3571 21.7845 63.0978 19.2564C62.8385 16.7284 63.2049 14.1754 64.1647 11.8223H44.6714C40.3879 11.8223 36.1463 12.666 32.1888 14.3052C28.2313 15.9444 24.6355 18.3471 21.6065 21.376C18.5776 24.4049 16.1749 28.0008 14.5357 31.9582C12.8964 35.9157 12.0527 40.1573 12.0527 44.4408V457.854C12.0527 462.137 12.8964 466.379 14.5357 470.336C16.1749 474.294 18.5776 477.89 21.6065 480.919C24.6354 483.948 28.2313 486.35 32.1887 487.989C36.1462 489.629 40.3878 490.472 44.6713 490.472H205.329C213.98 490.472 222.277 487.036 228.394 480.919C234.512 474.802 237.948 466.505 237.948 457.854V44.4409C237.948 40.1574 237.104 35.9158 235.465 31.9583C233.826 28.0008 231.423 24.405 228.394 21.3761C225.365 18.3471 221.77 15.9445 217.812 14.3052C213.855 12.666 209.613 11.8223 205.329 11.8223Z" fill="white"/>
<path d="M125 329.459C168.078 329.459 203 294.537 203 251.459C203 208.381 168.078 173.459 125 173.459C81.9218 173.459 47 208.381 47 251.459C47 294.537 81.9218 329.459 125 329.459Z" fill="#E4E4E4"/>
<path d="M125 316.459C160.899 316.459 190 287.357 190 251.459C190 215.56 160.899 186.459 125 186.459C89.1015 186.459 60 215.56 60 251.459C60 287.357 89.1015 316.459 125 316.459Z" fill="#034249"/>
<path d="M119.478 274.965C119.361 274.965 119.245 274.962 119.128 274.957C118.1 274.907 117.095 274.636 116.182 274.161C115.269 273.687 114.469 273.02 113.837 272.208L103.867 259.388C102.706 257.892 102.186 255.996 102.42 254.117C102.655 252.238 103.626 250.529 105.119 249.364L105.478 249.085C106.974 247.924 108.87 247.404 110.749 247.639C112.629 247.874 114.338 248.844 115.503 250.338C116.064 251.06 116.776 251.653 117.588 252.075C118.4 252.497 119.294 252.739 120.209 252.783C121.123 252.828 122.036 252.674 122.885 252.333C123.735 251.992 124.5 251.471 125.13 250.807L145.376 229.436C146.021 228.755 146.794 228.207 147.65 227.825C148.507 227.443 149.431 227.233 150.368 227.208C151.306 227.182 152.24 227.342 153.116 227.677C153.992 228.013 154.793 228.518 155.474 229.163L155.805 229.476C157.18 230.779 157.981 232.575 158.032 234.469C158.084 236.362 157.38 238.199 156.077 239.574L124.662 272.734C123.995 273.439 123.191 274 122.299 274.384C121.408 274.768 120.448 274.965 119.478 274.965Z" fill="white"/>
</svg>
