<svg width="72" height="73" viewBox="0 0 72 73" fill="none" xmlns="http://www.w3.org/2000/svg">
<path fill-rule="evenodd" clip-rule="evenodd" d="M41.8311 4.41602H42.1695C47.6828 4.41597 52.0497 4.41594 55.4674 4.87543C58.9846 5.34831 61.8315 6.34466 64.0766 8.58975C66.3217 10.8348 67.318 13.6817 67.7909 17.1989C68.2504 20.6166 68.2504 24.9835 68.2503 30.4968V42.8352C68.2504 48.3485 68.2504 52.7154 67.7909 56.1331C67.318 59.6503 66.3217 62.4972 64.0766 64.7423C61.8315 66.9874 58.9846 67.9837 55.4674 68.4566C52.0497 68.9161 47.6828 68.916 42.1695 68.916H36C34.7574 68.916 33.75 67.9086 33.75 66.666C33.75 65.4234 34.7574 64.416 36 64.416H42.0003C47.7208 64.416 51.7848 64.4112 54.8678 63.9967C57.886 63.5909 59.625 62.8299 60.8946 61.5603C62.1642 60.2907 62.9252 58.5517 63.331 55.5335C63.7455 52.4505 63.7503 48.3865 63.7503 42.666V30.666C63.7503 24.9455 63.7455 20.8815 63.331 17.7985C62.9252 14.7803 62.1642 13.0413 60.8946 11.7717C59.625 10.5021 57.886 9.74109 54.8678 9.3353C51.7848 8.9208 47.7208 8.91602 42.0003 8.91602C36.2798 8.91602 32.2158 8.9208 29.1328 9.3353C26.1146 9.74109 24.3756 10.5021 23.106 11.7717C21.0182 13.8595 20.386 17.1036 20.2761 24.6985C20.2582 25.9411 19.2363 26.9337 17.9938 26.9158C16.7513 26.8978 15.7586 25.876 15.7766 24.6335C15.882 17.351 16.3533 12.1604 19.924 8.58975C22.1691 6.34466 25.016 5.34831 28.5332 4.87543C31.9509 4.41594 36.3178 4.41597 41.8311 4.41602ZM16.3849 31.416H16.6151C18.6238 31.416 20.3 31.4159 21.6569 31.554C23.0774 31.6984 24.3955 32.0126 25.5835 32.8064C26.4843 33.4083 27.2577 34.1817 27.8596 35.0825C28.6534 36.2705 28.9676 37.5886 29.1121 39.0091C29.2501 40.3661 29.2501 42.0422 29.25 44.051V56.281C29.2501 58.2898 29.2501 59.9659 29.1121 61.3229C28.9676 62.7434 28.6534 64.0615 27.8596 65.2495C27.2577 66.1503 26.4843 66.9237 25.5835 67.5256C24.3955 68.3194 23.0774 68.6336 21.6569 68.778C20.2999 68.9161 18.6237 68.9161 16.615 68.916H16.385C14.3763 68.9161 12.7001 68.9161 11.3431 68.778C9.92265 68.6336 8.60454 68.3194 7.41655 67.5256C6.51573 66.9237 5.74229 66.1503 5.14038 65.2495C4.34659 64.0615 4.03245 62.7434 3.88795 61.3229C3.74991 59.9659 3.74995 58.2898 3.75 56.281V44.051C3.74995 42.0422 3.74991 40.3661 3.88795 39.0091C4.03245 37.5886 4.34659 36.2705 5.14038 35.0825C5.74229 34.1817 6.51573 33.4083 7.41655 32.8064C8.60454 32.0126 9.92265 31.6984 11.3431 31.554C12.7 31.4159 14.3762 31.416 16.3849 31.416ZM11.7985 36.0308C10.7339 36.1391 10.242 36.3306 9.91662 36.548C9.50715 36.8216 9.15559 37.1731 8.88199 37.5826C8.6646 37.908 8.47315 38.3999 8.36485 39.4645C8.25272 40.5667 8.25 42.0125 8.25 44.166V56.166C8.25 58.3195 8.25272 59.7653 8.36485 60.8675C8.47315 61.9321 8.6646 62.424 8.88199 62.7494C9.15558 63.1589 9.50715 63.5104 9.91662 63.784C10.242 64.0014 10.7339 64.1929 11.7985 64.3012C12.9007 64.4133 14.3465 64.416 16.5 64.416C18.6535 64.416 20.0993 64.4133 21.2015 64.3012C22.2661 64.1929 22.758 64.0014 23.0834 63.784C23.4929 63.5104 23.8444 63.1589 24.118 62.7494C24.3354 62.424 24.5269 61.9321 24.6352 60.8675C24.7473 59.7653 24.75 58.3195 24.75 56.166V44.166C24.75 42.0125 24.7473 40.5667 24.6352 39.4645C24.5269 38.3999 24.3354 37.908 24.118 37.5826C23.8444 37.1732 23.4929 36.8216 23.0834 36.548C22.758 36.3306 22.2661 36.1391 21.2015 36.0308C20.0993 35.9187 18.6535 35.916 16.5 35.916C14.3465 35.916 12.9007 35.9187 11.7985 36.0308ZM33.75 57.666C33.75 56.4234 34.7574 55.416 36 55.416H51C52.2426 55.416 53.25 56.4234 53.25 57.666C53.25 58.9086 52.2426 59.916 51 59.916H36C34.7574 59.916 33.75 58.9086 33.75 57.666Z" fill="#141414"/>
</svg>
