<svg width="72" height="73" viewBox="0 0 72 73" fill="none" xmlns="http://www.w3.org/2000/svg">
<path fill-rule="evenodd" clip-rule="evenodd" d="M35.8307 4.41602H36.1693C41.6825 4.41597 46.0494 4.41594 49.4671 4.87543C52.9843 5.34831 55.8312 6.34466 58.0763 8.58975C60.3214 10.8348 61.3177 13.6817 61.7906 17.1989C62.2501 20.6166 62.25 24.9835 62.25 30.4968V42.8352C62.25 48.3485 62.2501 52.7154 61.7906 56.1331C61.3177 59.6503 60.3214 62.4972 58.0763 64.7423C55.8312 66.9874 52.9843 67.9837 49.4671 68.4566C46.0494 68.9161 41.6825 68.916 36.1692 68.916H35.8308C30.3175 68.916 25.9506 68.9161 22.5329 68.4566C19.0157 67.9837 16.1688 66.9874 13.9237 64.7423C11.6786 62.4972 10.6823 59.6503 10.2094 56.1331C9.74992 52.7154 9.74995 48.3485 9.75 42.8353V30.4967C9.74995 24.9835 9.74992 20.6166 10.2094 17.1989C10.6823 13.6817 11.6786 10.8348 13.9237 8.58975C16.1688 6.34466 19.0157 5.34831 22.5329 4.87543C25.9506 4.41594 30.3175 4.41597 35.8307 4.41602ZM23.1325 9.3353C20.1143 9.74109 18.3753 10.5021 17.1057 11.7717C15.8361 13.0413 15.0751 14.7803 14.6693 17.7985C14.2548 20.8815 14.25 24.9455 14.25 30.666V42.666C14.25 48.3865 14.2548 52.4505 14.6693 55.5335C15.0751 58.5517 15.8361 60.2907 17.1057 61.5603C18.3753 62.8299 20.1143 63.5909 23.1325 63.9967C26.2155 64.4112 30.2795 64.416 36 64.416C41.7205 64.416 45.7845 64.4112 48.8675 63.9967C51.8857 63.5909 53.6247 62.8299 54.8943 61.5603C56.1639 60.2907 56.9249 58.5517 57.3307 55.5335C57.7452 52.4505 57.75 48.3865 57.75 42.666V30.666C57.75 24.9455 57.7452 20.8815 57.3307 17.7985C56.9249 14.7803 56.1639 13.0413 54.8943 11.7717C53.6247 10.5021 51.8857 9.74109 48.8675 9.3353C45.7845 8.9208 41.7205 8.91602 36 8.91602C30.2795 8.91602 26.2155 8.9208 23.1325 9.3353ZM24.75 15.666C24.75 14.4234 25.7574 13.416 27 13.416H45C46.2426 13.416 47.25 14.4234 47.25 15.666C47.25 16.9086 46.2426 17.916 45 17.916H27C25.7574 17.916 24.75 16.9086 24.75 15.666ZM36 47.916C33.9289 47.916 32.25 49.5949 32.25 51.666C32.25 53.7371 33.9289 55.416 36 55.416C38.0711 55.416 39.75 53.7371 39.75 51.666C39.75 49.5949 38.0711 47.916 36 47.916ZM27.75 51.666C27.75 47.1097 31.4437 43.416 36 43.416C40.5564 43.416 44.25 47.1097 44.25 51.666C44.25 56.2224 40.5564 59.916 36 59.916C31.4437 59.916 27.75 56.2224 27.75 51.666Z" fill="#141414"/>
</svg>
