<svg width="66" height="67" viewBox="0 0 66 67" fill="none" xmlns="http://www.w3.org/2000/svg">
<path fill-rule="evenodd" clip-rule="evenodd" d="M32.8479 4.55078H33.1535C38.1307 4.55074 42.0731 4.55071 45.1584 4.96553C48.3337 5.39243 50.9038 6.29192 52.9306 8.31874C54.9575 10.3456 55.8569 12.9156 56.2838 16.0909C56.6987 19.1763 56.6986 23.1186 56.6986 28.0959V39.2348C56.6986 44.2121 56.6987 48.1544 56.2838 51.2398C55.8569 54.4151 54.9575 56.9852 52.9306 59.012C50.9038 61.0388 48.3337 61.9383 45.1584 62.3652C42.0731 62.78 38.1307 62.78 33.1534 62.7799H32.8479C27.8706 62.78 23.9283 62.78 20.8429 62.3652C17.6676 61.9383 15.0975 61.0388 13.0707 59.012C11.0439 56.9852 10.1444 54.4151 9.71748 51.2398C9.30266 48.1544 9.30269 44.2121 9.30274 39.2348V28.0959C9.30269 23.1186 9.30266 19.1763 9.71748 16.0909C10.1444 12.9156 11.0439 10.3456 13.0707 8.31874C15.0975 6.29192 17.6676 5.39243 20.8429 4.96553C23.9283 4.55071 27.8706 4.55074 32.8479 4.55078ZM18.9552 9.48853C17.6307 9.88438 16.6957 10.4389 15.9433 11.1913C14.7971 12.3375 14.1101 13.9074 13.7438 16.6322C13.3696 19.4155 13.3652 23.0844 13.3652 28.2487V39.082C13.3652 44.2463 13.3696 47.9152 13.7438 50.6985C14.1101 53.4233 14.7971 54.9932 15.9433 56.1393C17.0895 57.2855 18.6594 57.9726 21.3842 58.3389C24.1675 58.7131 27.8364 58.7174 33.0007 58.7174C38.165 58.7174 41.8339 58.7131 44.6171 58.3389C47.3419 57.9726 48.9118 57.2855 50.058 56.1393C51.2042 54.9932 51.8912 53.4233 52.2576 50.6985C52.6318 47.9152 52.6361 44.2463 52.6361 39.082V28.2487C52.6361 23.0844 52.6318 19.4155 52.2576 16.6322C51.8912 13.9074 51.2042 12.3375 50.058 11.1913C49.3056 10.4389 48.3706 9.88438 47.0462 9.48853C45.254 12.1797 44.0009 14.0506 42.1378 15.2084C41.7661 15.4394 41.3798 15.6461 40.9815 15.8272C38.9714 16.7413 36.7031 16.7401 33.4352 16.7384C33.2923 16.7383 33.1474 16.7383 33.0007 16.7383C32.8539 16.7383 32.7091 16.7383 32.5662 16.7384C29.2983 16.7401 27.0299 16.7413 25.0199 15.8272C24.6215 15.6461 24.2353 15.4394 23.8636 15.2084C22.0004 14.0506 20.7474 12.1798 18.9552 9.48853ZM23.3896 8.79227C24.5923 10.5352 25.2221 11.2696 26.0078 11.7579C26.2308 11.8964 26.4625 12.0205 26.7015 12.1292C27.809 12.6328 29.1212 12.6758 33.0007 12.6758C36.8801 12.6758 38.1923 12.6328 39.2998 12.1292C39.5388 12.0205 39.7706 11.8964 39.9936 11.7579C40.7793 11.2696 41.4091 10.5352 42.6118 8.79227C40.1195 8.61589 37.0109 8.61329 33.0007 8.61329C28.9904 8.61329 25.8819 8.61589 23.3896 8.79227ZM22.8444 52.6237C22.8444 51.5018 23.7538 50.5924 24.8757 50.5924H41.1257C42.2475 50.5924 43.1569 51.5018 43.1569 52.6237C43.1569 53.7455 42.2475 54.6549 41.1257 54.6549H24.8757C23.7538 54.6549 22.8444 53.7455 22.8444 52.6237Z" fill="#141414"/>
</svg>
