<svg width="18" height="18" viewBox="0 0 18 18" fill="none" xmlns="http://www.w3.org/2000/svg">
<path d="M3.12779 11.4749L6.52529 14.8724C7.92029 16.2674 10.1853 16.2674 11.5878 14.8724L14.8803 11.5799C16.2753 10.1849 16.2753 7.91985 14.8803 6.51735L11.4753 3.12735C10.7628 2.41485 9.78029 2.03235 8.77529 2.08485L5.02529 2.26485C3.52529 2.33235 2.33279 3.52485 2.25779 5.01735L2.07779 8.76735C2.03279 9.77985 2.41529 10.7624 3.12779 11.4749Z" stroke="white" stroke-width="1.5" stroke-linecap="round" stroke-linejoin="round"/>
<path d="M7.125 9C8.16053 9 9 8.16053 9 7.125C9 6.08947 8.16053 5.25 7.125 5.25C6.08947 5.25 5.25 6.08947 5.25 7.125C5.25 8.16053 6.08947 9 7.125 9Z" stroke="white" stroke-width="1.5" stroke-linecap="round"/>
</svg>
